<svg xmlns="http://www.w3.org/2000/svg" xmlns:xlink="http://www.w3.org/1999/xlink" viewBox="0 0 1506.85 874.41"><defs><style>.cls-1{fill:none;}.cls-2{clip-path:url(#clip-path);}.cls-3{fill:url(#Ikke-navngivet_forløb_135);}.cls-4{fill:#ebfffd;}.cls-5{fill:#a1bc6d;}.cls-6{fill:#8ea55b;}.cls-7{fill:#8c683a;}.cls-8{fill:#a06b44;}.cls-9{fill:#e2a25d;}</style><clipPath id="clip-path"><rect class="cls-1" x="106.79" width="1294.12" height="804.41"/></clipPath><linearGradient id="Ikke-navngivet_forløb_135" x1="753.85" y1="804.41" x2="753.85" y2="-134.16" gradientUnits="userSpaceOnUse"><stop offset="0.01" stop-color="#a1c4e9"/><stop offset="0.84" stop-color="#9cdded" stop-opacity="0.03"/><stop offset="1" stop-color="#d4feff" stop-opacity="0"/></linearGradient></defs><title>Non-canyon BG</title><g id="Lag_2" data-name="Lag 2"><g id="Lag_1-2" data-name="Lag 1"><g class="cls-2"><rect class="cls-3" x="106.79" width="1294.12" height="804.41"/><rect class="cls-4" x="106.79" y="515.24" width="1294.12" height="359.18"/><circle class="cls-4" cx="345.95" cy="402.21" r="124.66"/><ellipse class="cls-4" cx="984.75" cy="498.4" rx="106.8" ry="101.98" transform="translate(-116.72 428.37) rotate(-23.21)"/><ellipse class="cls-4" cx="512.18" cy="452.27" rx="111.73" ry="101.98"/><ellipse class="cls-4" cx="1170.7" cy="453.68" rx="118.69" ry="110.5" transform="translate(-84.05 498.03) rotate(-23.21)"/><circle class="cls-4" cx="681.99" cy="504.22" r="101.98" transform="translate(-143.51 309.54) rotate(-23.21)"/><circle class="cls-4" cx="839.22" cy="502.35" r="100.12" transform="translate(-130.05 371.35) rotate(-23.21)"/><circle class="cls-4" cx="1358.38" cy="362.59" r="148.47"/><ellipse class="cls-5" cx="1160.58" cy="431.7" rx="28.25" ry="24.44"/><ellipse class="cls-5" cx="1209.72" cy="404.85" rx="43.28" ry="37.44"/><ellipse class="cls-5" cx="1143.21" cy="464.81" rx="38.26" ry="33.1"/><ellipse class="cls-5" cx="1260" cy="442.29" rx="43.28" ry="37.44"/><ellipse class="cls-5" cx="1303.28" cy="471.01" rx="28.25" ry="24.44"/><ellipse class="cls-5" cx="1202.37" cy="473.5" rx="28.25" ry="24.44"/><ellipse class="cls-5" cx="1253.22" cy="474.83" rx="28.25" ry="24.44"/><ellipse class="cls-5" cx="1230.61" cy="478.92" rx="20.89" ry="18.08"/><ellipse class="cls-5" cx="1174.12" cy="481.19" rx="20.89" ry="18.08"/><ellipse class="cls-5" cx="1196.72" cy="449.06" rx="28.25" ry="24.44"/><ellipse class="cls-5" cx="1287.65" cy="478.92" rx="20.89" ry="18.08"/><ellipse class="cls-5" cx="1236.28" cy="441.33" rx="28.31" ry="22.04"/><ellipse class="cls-5" cx="1285.53" cy="417.11" rx="43.37" ry="33.76"/><ellipse class="cls-5" cx="1218.88" cy="471.18" rx="38.34" ry="29.85"/><ellipse class="cls-5" cx="1335.91" cy="450.88" rx="43.37" ry="33.76"/><ellipse class="cls-5" cx="1379.29" cy="476.77" rx="28.31" ry="22.04"/><ellipse class="cls-5" cx="1278.16" cy="479.02" rx="28.31" ry="22.04"/><ellipse class="cls-5" cx="1329.12" cy="480.22" rx="28.31" ry="22.04"/><ellipse class="cls-5" cx="1306.47" cy="483.9" rx="20.94" ry="16.3"/><ellipse class="cls-5" cx="1249.86" cy="485.95" rx="20.94" ry="16.3"/><ellipse class="cls-5" cx="1272.51" cy="456.98" rx="28.31" ry="22.04"/><ellipse class="cls-5" cx="1363.63" cy="483.9" rx="20.94" ry="16.3"/><ellipse class="cls-5" cx="1070.24" cy="459.37" rx="28.31" ry="22.04"/><ellipse class="cls-5" cx="1119.49" cy="435.15" rx="43.37" ry="33.76"/><ellipse class="cls-5" cx="1052.84" cy="489.22" rx="38.34" ry="29.85"/><ellipse class="cls-5" cx="1169.87" cy="468.92" rx="43.37" ry="33.76"/><ellipse class="cls-5" cx="1213.25" cy="494.81" rx="28.31" ry="22.04"/><ellipse class="cls-5" cx="1112.12" cy="497.06" rx="28.31" ry="22.04"/><ellipse class="cls-5" cx="1163.08" cy="498.26" rx="28.31" ry="22.04"/><ellipse class="cls-5" cx="1140.43" cy="501.94" rx="20.94" ry="16.3"/><ellipse class="cls-5" cx="1083.82" cy="503.99" rx="20.94" ry="16.3"/><ellipse class="cls-5" cx="1106.47" cy="475.02" rx="28.31" ry="22.04"/><ellipse class="cls-5" cx="1197.59" cy="501.94" rx="20.94" ry="16.3"/><ellipse class="cls-6" cx="1165.19" cy="454.86" rx="26.69" ry="19.14"/><ellipse class="cls-6" cx="1211.63" cy="433.83" rx="40.9" ry="29.32"/><ellipse class="cls-6" cx="1148.78" cy="480.79" rx="36.16" ry="25.92"/><ellipse class="cls-6" cx="1259.14" cy="463.15" rx="40.9" ry="29.32"/><ellipse class="cls-6" cx="1300.03" cy="485.64" rx="26.69" ry="19.14"/><ellipse class="cls-6" cx="1204.68" cy="487.59" rx="26.69" ry="19.14"/><ellipse class="cls-6" cx="1252.73" cy="488.64" rx="26.69" ry="19.14"/><ellipse class="cls-6" cx="1231.37" cy="491.84" rx="19.74" ry="14.16"/><ellipse class="cls-6" cx="1177.99" cy="493.62" rx="19.74" ry="14.16"/><ellipse class="cls-6" cx="1199.35" cy="468.46" rx="26.69" ry="19.14"/><ellipse class="cls-6" cx="1285.27" cy="491.84" rx="19.74" ry="14.16"/><polygon class="cls-7" points="105.94 804.41 1400.91 804.41 1401.91 489.71 105.94 489.71 105.94 804.41"/><circle class="cls-4" cx="148.47" cy="362.59" r="148.47"/><ellipse class="cls-5" cx="346.27" cy="431.7" rx="28.25" ry="24.44"/><ellipse class="cls-5" cx="297.13" cy="404.85" rx="43.28" ry="37.44"/><ellipse class="cls-5" cx="363.64" cy="464.81" rx="38.26" ry="33.1"/><ellipse class="cls-5" cx="246.85" cy="442.29" rx="43.28" ry="37.44"/><ellipse class="cls-5" cx="203.57" cy="471.01" rx="28.25" ry="24.44"/><ellipse class="cls-5" cx="304.48" cy="473.5" rx="28.25" ry="24.44"/><ellipse class="cls-5" cx="253.63" cy="474.83" rx="28.25" ry="24.44"/><ellipse class="cls-5" cx="276.23" cy="478.92" rx="20.89" ry="18.08"/><ellipse class="cls-5" cx="332.73" cy="481.19" rx="20.89" ry="18.08"/><ellipse class="cls-5" cx="310.12" cy="449.06" rx="28.25" ry="24.44"/><ellipse class="cls-5" cx="219.19" cy="478.92" rx="20.89" ry="18.08"/><ellipse class="cls-5" cx="270.56" cy="441.33" rx="28.31" ry="22.04"/><ellipse class="cls-5" cx="221.32" cy="417.11" rx="43.37" ry="33.76"/><ellipse class="cls-5" cx="287.97" cy="471.18" rx="38.34" ry="29.85"/><ellipse class="cls-5" cx="170.93" cy="450.88" rx="43.37" ry="33.76"/><ellipse class="cls-5" cx="127.56" cy="476.77" rx="28.31" ry="22.04"/><ellipse class="cls-5" cx="228.68" cy="479.02" rx="28.31" ry="22.04"/><ellipse class="cls-5" cx="177.73" cy="480.22" rx="28.31" ry="22.04"/><ellipse class="cls-5" cx="200.38" cy="483.9" rx="20.94" ry="16.3"/><ellipse class="cls-5" cx="256.99" cy="485.95" rx="20.94" ry="16.3"/><ellipse class="cls-5" cx="234.34" cy="456.98" rx="28.31" ry="22.04"/><ellipse class="cls-5" cx="143.22" cy="483.9" rx="20.94" ry="16.3"/><ellipse class="cls-5" cx="507.35" cy="457.9" rx="28.31" ry="22.04"/><ellipse class="cls-5" cx="458.1" cy="433.68" rx="43.37" ry="33.76"/><ellipse class="cls-5" cx="524.75" cy="487.75" rx="38.34" ry="29.85"/><ellipse class="cls-5" cx="407.72" cy="467.45" rx="43.37" ry="33.76"/><ellipse class="cls-5" cx="364.34" cy="493.34" rx="28.31" ry="22.04"/><ellipse class="cls-5" cx="465.47" cy="495.59" rx="28.31" ry="22.04"/><ellipse class="cls-5" cx="414.51" cy="496.79" rx="28.31" ry="22.04"/><ellipse class="cls-5" cx="437.16" cy="500.47" rx="20.94" ry="16.3"/><ellipse class="cls-5" cx="493.77" cy="502.52" rx="20.94" ry="16.3"/><ellipse class="cls-5" cx="471.12" cy="473.55" rx="28.31" ry="22.04"/><ellipse class="cls-5" cx="380" cy="500.47" rx="20.94" ry="16.3"/><ellipse class="cls-6" cx="442.05" cy="462.06" rx="26.69" ry="19.14"/><ellipse class="cls-6" cx="395.61" cy="441.03" rx="40.9" ry="29.32"/><ellipse class="cls-6" cx="458.46" cy="487.99" rx="36.16" ry="25.92"/><ellipse class="cls-6" cx="348.1" cy="470.35" rx="40.9" ry="29.32"/><ellipse class="cls-6" cx="307.2" cy="492.84" rx="26.69" ry="19.14"/><ellipse class="cls-6" cx="402.56" cy="494.79" rx="26.69" ry="19.14"/><ellipse class="cls-6" cx="354.51" cy="495.84" rx="26.69" ry="19.14"/><ellipse class="cls-6" cx="375.86" cy="499.04" rx="19.74" ry="14.16"/><ellipse class="cls-6" cx="429.25" cy="500.82" rx="19.74" ry="14.16"/><ellipse class="cls-6" cx="407.89" cy="475.66" rx="26.69" ry="19.14"/><ellipse class="cls-6" cx="321.96" cy="499.04" rx="19.74" ry="14.16"/></g><rect class="cls-8" x="106.79" y="575.3" width="1294.12" height="49.71"/><rect class="cls-9" x="105.79" y="489.71" width="1295.12" height="129.9"/></g></g></svg>