<svg xmlns="http://www.w3.org/2000/svg" viewBox="0 0 393.09 152.89"><defs><style>.cls-1{fill:#a1bc6d;}.cls-2{fill:#8ea55b;}</style></defs><title>Bushes (R)</title><g id="Lag_2" data-name="Lag 2"><g id="Lag_1-2" data-name="Lag 1"><ellipse class="cls-1" cx="146.08" cy="64.3" rx="28.25" ry="24.44"/><ellipse class="cls-1" cx="195.22" cy="37.44" rx="43.28" ry="37.44"/><ellipse class="cls-1" cx="128.71" cy="97.4" rx="38.26" ry="33.1"/><ellipse class="cls-1" cx="245.5" cy="74.89" rx="43.28" ry="37.44"/><ellipse class="cls-1" cx="288.78" cy="103.61" rx="28.25" ry="24.44"/><ellipse class="cls-1" cx="187.87" cy="106.1" rx="28.25" ry="24.44"/><ellipse class="cls-1" cx="238.72" cy="107.43" rx="28.25" ry="24.44"/><ellipse class="cls-1" cx="216.12" cy="111.52" rx="20.89" ry="18.08"/><ellipse class="cls-1" cx="159.62" cy="113.79" rx="20.89" ry="18.08"/><ellipse class="cls-1" cx="182.23" cy="81.66" rx="28.25" ry="24.44"/><ellipse class="cls-1" cx="273.16" cy="111.52" rx="20.89" ry="18.08"/><ellipse class="cls-1" cx="221.79" cy="73.93" rx="28.31" ry="22.04"/><ellipse class="cls-1" cx="271.03" cy="49.71" rx="43.37" ry="33.76"/><ellipse class="cls-1" cx="204.38" cy="103.78" rx="38.34" ry="29.85"/><ellipse class="cls-1" cx="321.42" cy="83.47" rx="43.37" ry="33.76"/><ellipse class="cls-1" cx="364.79" cy="109.37" rx="28.31" ry="22.04"/><ellipse class="cls-1" cx="263.67" cy="111.62" rx="28.31" ry="22.04"/><ellipse class="cls-1" cx="314.62" cy="112.82" rx="28.31" ry="22.04"/><ellipse class="cls-1" cx="291.97" cy="116.5" rx="20.94" ry="16.3"/><ellipse class="cls-1" cx="235.36" cy="118.55" rx="20.94" ry="16.3"/><ellipse class="cls-1" cx="258.01" cy="89.58" rx="28.31" ry="22.04"/><ellipse class="cls-1" cx="349.13" cy="116.5" rx="20.94" ry="16.3"/><ellipse class="cls-1" cx="55.75" cy="91.97" rx="28.31" ry="22.04"/><ellipse class="cls-1" cx="104.99" cy="67.75" rx="43.37" ry="33.76"/><ellipse class="cls-1" cx="38.34" cy="121.82" rx="38.34" ry="29.85"/><ellipse class="cls-1" cx="155.38" cy="101.52" rx="43.37" ry="33.76"/><ellipse class="cls-1" cx="198.75" cy="127.41" rx="28.31" ry="22.04"/><ellipse class="cls-1" cx="97.63" cy="129.66" rx="28.31" ry="22.04"/><ellipse class="cls-1" cx="148.58" cy="130.86" rx="28.31" ry="22.04"/><ellipse class="cls-1" cx="125.93" cy="134.54" rx="20.94" ry="16.3"/><ellipse class="cls-1" cx="69.32" cy="136.59" rx="20.94" ry="16.3"/><ellipse class="cls-1" cx="91.97" cy="107.62" rx="28.31" ry="22.04"/><ellipse class="cls-1" cx="183.09" cy="134.54" rx="20.94" ry="16.3"/><ellipse class="cls-2" cx="150.69" cy="87.46" rx="26.69" ry="19.14"/><ellipse class="cls-2" cx="197.13" cy="66.43" rx="40.9" ry="29.32"/><ellipse class="cls-2" cx="134.28" cy="113.39" rx="36.16" ry="25.92"/><ellipse class="cls-2" cx="244.64" cy="95.75" rx="40.9" ry="29.32"/><ellipse class="cls-2" cx="285.54" cy="118.24" rx="26.69" ry="19.14"/><ellipse class="cls-2" cx="190.18" cy="120.19" rx="26.69" ry="19.14"/><ellipse class="cls-2" cx="238.23" cy="121.24" rx="26.69" ry="19.14"/><ellipse class="cls-2" cx="216.87" cy="124.44" rx="19.74" ry="14.16"/><ellipse class="cls-2" cx="163.49" cy="126.22" rx="19.74" ry="14.16"/><ellipse class="cls-2" cx="184.85" cy="101.06" rx="26.69" ry="19.14"/><ellipse class="cls-2" cx="270.78" cy="124.44" rx="19.74" ry="14.16"/></g></g></svg>