<svg xmlns="http://www.w3.org/2000/svg" viewBox="0 0 463.84 151.42"><defs><style>.cls-1{fill:#a1bc6d;}.cls-2{fill:#8ea55b;}</style></defs><title>Bushes (L)</title><g id="Lag_2" data-name="Lag 2"><g id="Lag_1-2" data-name="Lag 1"><ellipse class="cls-1" cx="247.01" cy="64.3" rx="28.25" ry="24.44"/><ellipse class="cls-1" cx="197.87" cy="37.44" rx="43.28" ry="37.44"/><ellipse class="cls-1" cx="264.38" cy="97.4" rx="38.26" ry="33.1"/><ellipse class="cls-1" cx="147.6" cy="74.89" rx="43.28" ry="37.44"/><ellipse class="cls-1" cx="104.32" cy="103.61" rx="28.25" ry="24.44"/><ellipse class="cls-1" cx="205.22" cy="106.1" rx="28.25" ry="24.44"/><ellipse class="cls-1" cx="154.38" cy="107.43" rx="28.25" ry="24.44"/><ellipse class="cls-1" cx="176.98" cy="111.52" rx="20.89" ry="18.08"/><ellipse class="cls-1" cx="233.47" cy="113.79" rx="20.89" ry="18.08"/><ellipse class="cls-1" cx="210.87" cy="81.66" rx="28.25" ry="24.44"/><ellipse class="cls-1" cx="119.94" cy="111.52" rx="20.89" ry="18.08"/><ellipse class="cls-1" cx="171.31" cy="73.93" rx="28.31" ry="22.04"/><ellipse class="cls-1" cx="122.06" cy="49.71" rx="43.37" ry="33.76"/><ellipse class="cls-1" cx="188.71" cy="103.78" rx="38.34" ry="29.85"/><ellipse class="cls-1" cx="71.68" cy="83.47" rx="43.37" ry="33.76"/><ellipse class="cls-1" cx="28.31" cy="109.37" rx="28.31" ry="22.04"/><ellipse class="cls-1" cx="129.43" cy="111.62" rx="28.31" ry="22.04"/><ellipse class="cls-1" cx="78.47" cy="112.82" rx="28.31" ry="22.04"/><ellipse class="cls-1" cx="101.12" cy="116.5" rx="20.94" ry="16.3"/><ellipse class="cls-1" cx="157.74" cy="118.55" rx="20.94" ry="16.3"/><ellipse class="cls-1" cx="135.08" cy="89.58" rx="28.31" ry="22.04"/><ellipse class="cls-1" cx="43.96" cy="116.5" rx="20.94" ry="16.3"/><ellipse class="cls-1" cx="408.09" cy="90.5" rx="28.31" ry="22.04"/><ellipse class="cls-1" cx="425.5" cy="120.35" rx="38.34" ry="29.85"/><ellipse class="cls-1" cx="358.85" cy="66.28" rx="43.37" ry="33.76"/><ellipse class="cls-1" cx="308.46" cy="100.05" rx="43.37" ry="33.76"/><ellipse class="cls-1" cx="265.09" cy="125.94" rx="28.31" ry="22.04"/><ellipse class="cls-1" cx="366.21" cy="128.19" rx="28.31" ry="22.04"/><ellipse class="cls-1" cx="315.26" cy="129.39" rx="28.31" ry="22.04"/><ellipse class="cls-1" cx="337.91" cy="133.07" rx="20.94" ry="16.3"/><ellipse class="cls-1" cx="394.52" cy="135.12" rx="20.94" ry="16.3"/><ellipse class="cls-1" cx="371.87" cy="106.15" rx="28.31" ry="22.04"/><ellipse class="cls-1" cx="280.74" cy="133.07" rx="20.94" ry="16.3"/><ellipse class="cls-2" cx="342.79" cy="94.66" rx="26.69" ry="19.14"/><ellipse class="cls-2" cx="296.35" cy="73.63" rx="40.9" ry="29.32"/><ellipse class="cls-2" cx="359.2" cy="120.59" rx="36.16" ry="25.92"/><ellipse class="cls-2" cx="248.84" cy="102.95" rx="40.9" ry="29.32"/><ellipse class="cls-2" cx="207.95" cy="125.44" rx="26.69" ry="19.14"/><ellipse class="cls-2" cx="303.3" cy="127.39" rx="26.69" ry="19.14"/><ellipse class="cls-2" cx="255.25" cy="128.44" rx="26.69" ry="19.14"/><ellipse class="cls-2" cx="276.61" cy="131.64" rx="19.74" ry="14.16"/><ellipse class="cls-2" cx="329.99" cy="133.42" rx="19.74" ry="14.16"/><ellipse class="cls-2" cx="308.63" cy="108.26" rx="26.69" ry="19.14"/><ellipse class="cls-2" cx="222.71" cy="131.64" rx="19.74" ry="14.16"/></g></g></svg>