<svg xmlns="http://www.w3.org/2000/svg" viewBox="0 0 615.04 430.31"><defs><style>.cls-1{fill:#8fa3aa;}.cls-2{opacity:0.6;}</style></defs><title>City</title><g id="Lag_2" data-name="Lag 2"><g id="Lag_1-2" data-name="Lag 1"><rect class="cls-1" x="272.58" y="34.7" width="30.94" height="10.35"/><polygon class="cls-1" points="346.01 102.63 346.01 147.77 305.89 147.77 305.89 40.08 269.7 40.08 269.7 211.49 226.33 211.49 226.33 112.98 160.5 112.98 160.5 160.04 134.52 160.04 134.52 206.39 102.08 206.39 102.08 112.98 66.33 112.98 66.33 331.8 102.08 331.8 102.08 425.21 137.83 425.21 137.83 378.86 168.53 378.86 168.53 331.8 223.28 331.8 223.28 430.31 279.95 430.31 279.95 275.91 300.81 275.91 300.81 378.86 346.01 378.86 346.01 320.35 392.43 320.35 392.43 102.63 346.01 102.63"/><rect class="cls-1" x="71.45" y="105.41" width="25.12" height="11.85"/><rect class="cls-1" x="78.94" y="82.01" width="9.31" height="25.19"/><rect class="cls-1" x="82.34" y="44.83" width="2.13" height="49.78" rx="1.05" ry="1.05"/><rect class="cls-1" x="105.65" y="202.44" width="5.89" height="9.35"/><rect class="cls-1" x="138" y="155.55" width="8.28" height="7.57"/><rect class="cls-1" x="149.34" y="155.55" width="8.28" height="7.57"/><rect class="cls-1" x="267.47" y="54.5" width="40.81" height="9.45"/><rect class="cls-1" x="267.47" y="76.09" width="40.81" height="6.75"/><rect class="cls-1" x="275.96" y="31.33" width="10.09" height="6.07"/><rect class="cls-1" x="290.14" y="31.33" width="10.09" height="7.87"/><rect class="cls-1" x="176.72" y="108.34" width="12.19" height="11.04"/><rect class="cls-1" x="197.7" y="108.34" width="12.19" height="11.04"/><rect class="cls-1" x="560.14" y="191.45" width="54.9" height="102"/><rect class="cls-1" x="526.97" y="190.19" width="54.9" height="102"/><rect class="cls-1" x="15.14" y="183.42" width="41.12" height="41.16"/><rect class="cls-1" y="196.93" width="84.47" height="64.42"/><path class="cls-1" d="M15.14,175.09H45a11.22,11.22,0,0,1,11.22,11.22v.15a0,0,0,0,1,0,0H15.14a0,0,0,0,1,0,0V175.09a0,0,0,0,1,0,0Z"/><rect class="cls-1" x="353.86" y="92.95" width="9.61" height="15.25"/><rect class="cls-1" x="375.1" y="92.95" width="9.61" height="15.25"/><rect class="cls-1" x="366.5" y="71.09" width="5.56" height="32.25"/><rect class="cls-1" x="392.43" y="180.77" width="81.33" height="138.68"/><rect class="cls-1" x="432.3" y="145.45" width="41.46" height="41"/><rect class="cls-1" x="473.76" y="198.13" width="89.21" height="95.33"/><rect class="cls-1" x="489.47" y="165.95" width="42.67" height="127.5"/><rect class="cls-1" x="441.23" y="135.45" width="24.36" height="14"/><rect class="cls-1" x="436.72" y="140.45" width="32.42" height="9.33"/><rect class="cls-1" x="495.02" y="163.11" width="11.8" height="2.84"/><rect class="cls-1" x="514.02" y="163.11" width="11.8" height="2.84"/><rect class="cls-1" x="538.5" y="163.11" width="11.8" height="2.84"/><path class="cls-1" d="M555.08,400.45"/><g class="cls-2"><path class="cls-1" d="M278.27,28.85c1.83-3,.12-7-2.34-9.5s-5.67-4.35-7.71-7.23c-1.85-2.62-2.56-5.85-3-9"/></g><g class="cls-2"><path class="cls-1" d="M293.3,29.86a7.51,7.51,0,0,0,.75-6.79,17.42,17.42,0,0,0-3.86-5.93,52.43,52.43,0,0,0-4.44-4.35c-2-1.71-4.09-3.32-5.4-5.55s-1.56-5.33.21-7.23"/></g></g></g></svg>