<svg xmlns="http://www.w3.org/2000/svg" viewBox="0 0 1297.47 314.71"><defs><style>.cls-1{fill:#a06b44;}.cls-2{fill:#8c683a;}.cls-3{fill:#6b5034;opacity:0.3;}.cls-4{fill:#e2a25d;}</style></defs><title>Cliffs</title><g id="Lag_2" data-name="Lag 2"><g id="Lag_1-2" data-name="Lag 1"><polygon class="cls-1" points="839.46 2.31 833.85 8.7 830.59 6.01 829.89 3.96 828.49 0 832.63 0.01 839.46 2.31"/><rect class="cls-1" x="834.38" y="3.19" width="1.47" height="1.47"/><polygon class="cls-2" points="1296.22 314.71 934.39 314.71 828.57 0.01 1296.22 0.01 1296.22 314.71"/><polygon class="cls-3" points="926.89 207.24 876.41 48.28 868.55 32.87 883.55 34.2 913.55 37.87 919.47 38.96 926.89 207.24"/><polygon class="cls-3" points="1261.1 314.71 1215.1 169.71 1204.33 135.13 1248.97 133.16 1279.53 127.6 1288.29 126.15 1261.1 314.71"/><polygon class="cls-3" points="1145.71 300.2 1116.78 215.54 1085.66 116.94 1121.34 116.32 1138.6 115.91 1157.22 114.28 1145.71 300.2"/><polygon class="cls-3" points="1034.7 281.87 971.37 96.56 963.52 74.54 1000.17 75.24 1028.77 74.61 1041.13 74.54 1034.7 281.87"/><polyline class="cls-1" points="1252.23 139.16 1207.6 141.13 1153.8 124.3 1080.58 123.21 1040.69 86.18 962.08 87.18 921.38 46.12 866.1 38.66 830.59 6.01 1295.8 6.01 1296.85 135.2"/><polyline class="cls-4" points="1252.86 133.16 1208.22 135.13 1154.42 118.3 1081.2 117.21 1041.32 80.18 963.7 80.18 922.01 40.12 866.72 32.66 828.57 0.01 1296.43 0.01 1297.47 129.2"/><polygon class="cls-1" points="834.12 9.29 836.49 6.78 831.55 0.53 828.68 0.2 830.62 5.96 834.12 9.29"/><polygon class="cls-2" points="1.25 314.71 363.08 314.71 468.9 0.01 1.25 0.01 1.25 314.71"/><polygon class="cls-3" points="370.58 207.24 421.06 48.28 428.92 32.87 413.92 34.2 383.92 37.87 378 38.96 370.58 207.24"/><polygon class="cls-3" points="37.1 310.71 79.1 170.71 89.25 135.13 44.61 133.16 14.06 127.6 0.81 125.41 37.1 310.71"/><polygon class="cls-3" points="151.76 300.2 180.69 215.54 211.81 116.94 176.13 116.32 158.87 115.91 140.25 114.28 151.76 300.2"/><polygon class="cls-3" points="262.77 281.87 326.1 96.56 333.95 74.54 297.3 75.24 268.7 74.61 256.34 74.54 262.77 281.87"/><polyline class="cls-1" points="45.24 139.16 89.88 141.13 143.67 124.3 216.9 123.21 256.78 86.18 335.39 87.18 376.09 46.12 431.37 38.66 466.92 5.89 1.67 6.01 0.63 135.2"/><polygon class="cls-1" points="463.44 9.17 459.21 4.68 466.01 0.41 468.87 0.07 466.94 5.84 463.44 9.17"/><polyline class="cls-4" points="44.61 133.16 89.25 135.13 143.05 118.3 216.27 117.21 256.15 80.18 333.77 80.18 375.46 40.12 430.75 32.66 468.9 0.01 1.04 0.01 0 129.2"/></g></g></svg>