<svg xmlns="http://www.w3.org/2000/svg" viewBox="0 0 468.98 314.71"><defs><style>.cls-1{fill:#a06b44;}.cls-2{fill:#8c683a;}.cls-3{fill:#6b5034;opacity:0.3;}.cls-4{fill:#e2a25d;}</style></defs><title>Cliff (R)</title><g id="Lag_2" data-name="Lag 2"><g id="Lag_1-2" data-name="Lag 1"><polygon class="cls-1" points="10.97 2.31 5.37 8.7 2.1 6.01 1.4 3.96 0 0 4.14 0.01 10.97 2.31"/><rect class="cls-1" x="5.89" y="3.19" width="1.47" height="1.47"/><polygon class="cls-2" points="467.73 314.71 105.9 314.71 0.09 0.01 467.73 0.01 467.73 314.71"/><polygon class="cls-3" points="98.4 207.24 47.92 48.28 40.07 32.87 55.07 34.2 85.07 37.87 90.98 38.96 98.4 207.24"/><polygon class="cls-3" points="432.62 314.71 386.62 169.71 375.85 135.13 420.48 133.16 451.04 127.6 459.8 126.15 432.62 314.71"/><polygon class="cls-3" points="317.23 300.2 288.29 215.54 257.17 116.94 292.85 116.32 310.12 115.91 328.73 114.28 317.23 300.2"/><polygon class="cls-3" points="206.21 281.87 142.88 96.56 135.03 74.54 171.69 75.24 200.28 74.61 212.65 74.54 206.21 281.87"/><polyline class="cls-1" points="423.74 139.16 379.11 141.13 325.31 124.3 252.09 123.21 212.2 86.18 133.59 87.18 92.9 46.12 37.61 38.66 2.1 6.01 467.32 6.01 468.36 135.2"/><polyline class="cls-4" points="424.37 133.16 379.73 135.13 325.93 118.3 252.71 117.21 212.83 80.18 135.21 80.18 93.52 40.12 38.23 32.66 0.09 0.01 467.94 0.01 468.98 129.2"/><polygon class="cls-1" points="5.63 9.29 8 6.78 3.06 0.53 0.2 0.2 2.13 5.96 5.63 9.29"/></g></g></svg>