<svg xmlns="http://www.w3.org/2000/svg" viewBox="0 0 468.9 314.71"><defs><style>.cls-1{fill:#8c683a;}.cls-2{fill:#6b5034;opacity:0.3;}.cls-3{fill:#a06b44;}.cls-4{fill:#e2a25d;}</style></defs><title>Cliff (L)</title><g id="Lag_2" data-name="Lag 2"><g id="Lag_1-2" data-name="Lag 1"><polygon class="cls-1" points="1.25 314.71 363.08 314.71 468.9 0 1.25 0 1.25 314.71"/><polygon class="cls-2" points="370.58 207.23 421.06 48.27 428.92 32.86 413.92 34.2 383.92 37.86 378 38.95 370.58 207.23"/><polygon class="cls-2" points="37.1 310.71 79.1 170.71 89.25 135.12 44.61 133.15 14.06 127.59 0.81 125.4 37.1 310.71"/><polygon class="cls-2" points="151.76 300.2 180.69 215.53 211.81 116.93 176.13 116.31 158.87 115.9 140.25 114.27 151.76 300.2"/><polygon class="cls-2" points="262.77 281.86 326.1 96.55 333.95 74.53 297.3 75.23 268.7 74.61 256.34 74.53 262.77 281.86"/><polyline class="cls-3" points="45.24 139.15 89.88 141.12 143.67 124.29 216.9 123.2 256.78 86.17 335.39 87.17 376.09 46.11 431.37 38.65 466.92 5.88 1.67 6 0.63 135.19"/><polygon class="cls-3" points="463.44 9.16 459.21 4.67 466.01 0.4 468.87 0.07 466.94 5.83 463.44 9.16"/><polyline class="cls-4" points="44.61 133.15 89.25 135.12 143.05 118.29 216.27 117.2 256.15 80.17 333.77 80.17 375.46 40.11 430.75 32.65 468.9 0 1.04 0 0 129.19"/></g></g></svg>