<svg xmlns="http://www.w3.org/2000/svg" viewBox="0 0 1308.34 152.89"><defs><style>.cls-1{fill:#a1bc6d;}.cls-2{fill:#8ea55b;}</style></defs><title>Non-canyon Bushes</title><g id="Lag_2" data-name="Lag 2"><g id="Lag_1-2" data-name="Lag 1"><ellipse class="cls-1" cx="1061.32" cy="64.3" rx="28.25" ry="24.44"/><ellipse class="cls-1" cx="1110.46" cy="37.44" rx="43.28" ry="37.44"/><ellipse class="cls-1" cx="1043.96" cy="97.4" rx="38.26" ry="33.1"/><ellipse class="cls-1" cx="1160.74" cy="74.89" rx="43.28" ry="37.44"/><ellipse class="cls-1" cx="1204.02" cy="103.61" rx="28.25" ry="24.44"/><ellipse class="cls-1" cx="1103.11" cy="106.1" rx="28.25" ry="24.44"/><ellipse class="cls-1" cx="1153.96" cy="107.43" rx="28.25" ry="24.44"/><ellipse class="cls-1" cx="1131.36" cy="111.52" rx="20.89" ry="18.08"/><ellipse class="cls-1" cx="1074.87" cy="113.79" rx="20.89" ry="18.08"/><ellipse class="cls-1" cx="1097.47" cy="81.66" rx="28.25" ry="24.44"/><ellipse class="cls-1" cx="1188.4" cy="111.52" rx="20.89" ry="18.08"/><ellipse class="cls-1" cx="1137.03" cy="73.93" rx="28.31" ry="22.04"/><ellipse class="cls-1" cx="1186.27" cy="49.71" rx="43.37" ry="33.76"/><ellipse class="cls-1" cx="1119.62" cy="103.78" rx="38.34" ry="29.85"/><ellipse class="cls-1" cx="1236.66" cy="83.47" rx="43.37" ry="33.76"/><ellipse class="cls-1" cx="1280.03" cy="109.37" rx="28.31" ry="22.04"/><ellipse class="cls-1" cx="1178.91" cy="111.62" rx="28.31" ry="22.04"/><ellipse class="cls-1" cx="1229.86" cy="112.82" rx="28.31" ry="22.04"/><ellipse class="cls-1" cx="1207.21" cy="116.5" rx="20.94" ry="16.3"/><ellipse class="cls-1" cx="1150.6" cy="118.55" rx="20.94" ry="16.3"/><ellipse class="cls-1" cx="1173.25" cy="89.58" rx="28.31" ry="22.04"/><ellipse class="cls-1" cx="1264.38" cy="116.5" rx="20.94" ry="16.3"/><ellipse class="cls-1" cx="970.99" cy="91.97" rx="28.31" ry="22.04"/><ellipse class="cls-1" cx="1020.23" cy="67.75" rx="43.37" ry="33.76"/><ellipse class="cls-1" cx="953.59" cy="121.82" rx="38.34" ry="29.85"/><ellipse class="cls-1" cx="1070.62" cy="101.52" rx="43.37" ry="33.76"/><ellipse class="cls-1" cx="1113.99" cy="127.41" rx="28.31" ry="22.04"/><ellipse class="cls-1" cx="1012.87" cy="129.66" rx="28.31" ry="22.04"/><ellipse class="cls-1" cx="1063.82" cy="130.86" rx="28.31" ry="22.04"/><ellipse class="cls-1" cx="1041.17" cy="134.54" rx="20.94" ry="16.3"/><ellipse class="cls-1" cx="984.56" cy="136.59" rx="20.94" ry="16.3"/><ellipse class="cls-1" cx="1007.21" cy="107.62" rx="28.31" ry="22.04"/><ellipse class="cls-1" cx="1098.34" cy="134.54" rx="20.94" ry="16.3"/><ellipse class="cls-2" cx="1065.93" cy="87.46" rx="26.69" ry="19.14"/><ellipse class="cls-2" cx="1112.37" cy="66.43" rx="40.9" ry="29.32"/><ellipse class="cls-2" cx="1049.52" cy="113.39" rx="36.16" ry="25.92"/><ellipse class="cls-2" cx="1159.88" cy="95.75" rx="40.9" ry="29.32"/><ellipse class="cls-2" cx="1200.78" cy="118.24" rx="26.69" ry="19.14"/><ellipse class="cls-2" cx="1105.42" cy="120.19" rx="26.69" ry="19.14"/><ellipse class="cls-2" cx="1153.47" cy="121.24" rx="26.69" ry="19.14"/><ellipse class="cls-2" cx="1132.12" cy="124.44" rx="19.74" ry="14.16"/><ellipse class="cls-2" cx="1078.73" cy="126.22" rx="19.74" ry="14.16"/><ellipse class="cls-2" cx="1100.09" cy="101.06" rx="26.69" ry="19.14"/><ellipse class="cls-2" cx="1186.02" cy="124.44" rx="19.74" ry="14.16"/><ellipse class="cls-1" cx="247.01" cy="64.3" rx="28.25" ry="24.44"/><ellipse class="cls-1" cx="197.87" cy="37.44" rx="43.28" ry="37.44"/><ellipse class="cls-1" cx="264.38" cy="97.4" rx="38.26" ry="33.1"/><ellipse class="cls-1" cx="147.6" cy="74.89" rx="43.28" ry="37.44"/><ellipse class="cls-1" cx="104.32" cy="103.61" rx="28.25" ry="24.44"/><ellipse class="cls-1" cx="205.22" cy="106.1" rx="28.25" ry="24.44"/><ellipse class="cls-1" cx="154.38" cy="107.43" rx="28.25" ry="24.44"/><ellipse class="cls-1" cx="176.98" cy="111.52" rx="20.89" ry="18.08"/><ellipse class="cls-1" cx="233.47" cy="113.79" rx="20.89" ry="18.08"/><ellipse class="cls-1" cx="210.87" cy="81.66" rx="28.25" ry="24.44"/><ellipse class="cls-1" cx="119.94" cy="111.52" rx="20.89" ry="18.08"/><ellipse class="cls-1" cx="171.31" cy="73.93" rx="28.31" ry="22.04"/><ellipse class="cls-1" cx="122.06" cy="49.71" rx="43.37" ry="33.76"/><ellipse class="cls-1" cx="188.71" cy="103.78" rx="38.34" ry="29.85"/><ellipse class="cls-1" cx="71.68" cy="83.47" rx="43.37" ry="33.76"/><ellipse class="cls-1" cx="28.31" cy="109.37" rx="28.31" ry="22.04"/><ellipse class="cls-1" cx="129.43" cy="111.62" rx="28.31" ry="22.04"/><ellipse class="cls-1" cx="78.47" cy="112.82" rx="28.31" ry="22.04"/><ellipse class="cls-1" cx="101.12" cy="116.5" rx="20.94" ry="16.3"/><ellipse class="cls-1" cx="157.74" cy="118.55" rx="20.94" ry="16.3"/><ellipse class="cls-1" cx="135.08" cy="89.58" rx="28.31" ry="22.04"/><ellipse class="cls-1" cx="43.96" cy="116.5" rx="20.94" ry="16.3"/><ellipse class="cls-1" cx="408.09" cy="90.5" rx="28.31" ry="22.04"/><ellipse class="cls-1" cx="358.85" cy="66.28" rx="43.37" ry="33.76"/><ellipse class="cls-1" cx="425.5" cy="120.35" rx="38.34" ry="29.85"/><ellipse class="cls-1" cx="308.46" cy="100.05" rx="43.37" ry="33.76"/><ellipse class="cls-1" cx="265.09" cy="125.94" rx="28.31" ry="22.04"/><ellipse class="cls-1" cx="366.21" cy="128.19" rx="28.31" ry="22.04"/><ellipse class="cls-1" cx="315.26" cy="129.39" rx="28.31" ry="22.04"/><ellipse class="cls-1" cx="337.91" cy="133.07" rx="20.94" ry="16.3"/><ellipse class="cls-1" cx="394.52" cy="135.12" rx="20.94" ry="16.3"/><ellipse class="cls-1" cx="371.87" cy="106.15" rx="28.31" ry="22.04"/><ellipse class="cls-1" cx="280.74" cy="133.07" rx="20.94" ry="16.3"/><ellipse class="cls-2" cx="342.79" cy="94.66" rx="26.69" ry="19.14"/><ellipse class="cls-2" cx="296.35" cy="73.63" rx="40.9" ry="29.32"/><ellipse class="cls-2" cx="359.2" cy="120.59" rx="36.16" ry="25.92"/><ellipse class="cls-2" cx="248.84" cy="102.95" rx="40.9" ry="29.32"/><ellipse class="cls-2" cx="207.95" cy="125.44" rx="26.69" ry="19.14"/><ellipse class="cls-2" cx="303.3" cy="127.39" rx="26.69" ry="19.14"/><ellipse class="cls-2" cx="255.25" cy="128.44" rx="26.69" ry="19.14"/><ellipse class="cls-2" cx="276.61" cy="131.64" rx="19.74" ry="14.16"/><ellipse class="cls-2" cx="329.99" cy="133.42" rx="19.74" ry="14.16"/><ellipse class="cls-2" cx="308.63" cy="108.26" rx="26.69" ry="19.14"/><ellipse class="cls-2" cx="222.71" cy="131.64" rx="19.74" ry="14.16"/></g></g></svg>