<svg xmlns="http://www.w3.org/2000/svg" viewBox="0 0 558.49 1948.45"><defs><style>.cls-1{fill:#23130a;}.cls-2{fill:#ddcaab;}.cls-3{fill:#20280e;}.cls-4{fill:#232322;}.cls-5{fill:#ddd;}.cls-6{fill:#4d4f4c;}.cls-7{fill:#eeefed;}.cls-13,.cls-8{fill:#755641;}.cls-9{fill:#896750;}.cls-10{fill:none;stroke-linecap:round;stroke-width:4px;}.cls-10,.cls-15{stroke:#000;}.cls-10,.cls-12,.cls-13,.cls-15{stroke-miterlimit:10;}.cls-11{fill:#fff;}.cls-12{fill:#684b37;}.cls-12,.cls-13{stroke:#6d503c;}.cls-14{fill:#ddbea8;}.cls-15{fill:#fffef8;stroke-width:0.5px;}</style></defs><title>Finn with sign_1</title><g id="Lag_2" data-name="Lag 2"><g id="Lag_1-2" data-name="Lag 1"><rect class="cls-1" x="100.54" y="1545.18" width="133.53" height="53.51"/><circle class="cls-2" cx="241.97" cy="1544.6" r="7.55" transform="translate(-1314.79 1688.99) rotate(-86.4)"/><rect class="cls-3" x="80.64" y="1580.05" width="46.36" height="46.36" rx="4.81" ry="4.81" transform="translate(-122.43 12.65) rotate(-4.39)"/><path class="cls-4" d="M209.57,1877.91h0c-11.15,1.71-21.54-6.92-23.09-19.17l-6.63-52.35c-1.55-12.25,6.3-23.67,17.44-25.38h0c11.15-1.71,21.54,6.92,23.09,19.17l6.63,52.35C228.57,1864.78,220.72,1876.2,209.57,1877.91Z"/><rect class="cls-4" x="186.16" y="1846.54" width="40.92" height="94.44" rx="4.24" ry="4.24" transform="translate(119.46 -9.24) rotate(3.6)"/><path class="cls-5" d="M172.86,1944.93c0-17.75,11.34-32.14,25.34-32.14s25.34,14.39,25.34,32.14"/><path class="cls-6" d="M207.2,1925.95l3.71,2.76a4.48,4.48,0,0,0,6.65-1.57l12.2-21.11a5.93,5.93,0,0,0-1.38-7.55l-3.71-2.76a4.48,4.48,0,0,0-6.65,1.57l-12.2,21.11A5.93,5.93,0,0,0,207.2,1925.95Z"/><path class="cls-6" d="M220.75,1926.13l2.59-4.09a6,6,0,0,0-1.1-7.61l-18.07-14.72a4.46,4.46,0,0,0-6.7,1.25l-2.59,4.09a6,6,0,0,0,1.1,7.61L214,1927.38A4.46,4.46,0,0,0,220.75,1926.13Z"/><path class="cls-7" d="M188.51,1943.26a33.57,33.57,0,0,1,67.15,0"/><rect class="cls-6" x="171.55" y="1937.79" width="85.66" height="10.66" rx="1.11" ry="1.11"/><path class="cls-4" d="M142.41,1877.91h0c-11.15,1.71-21.54-6.92-23.09-19.17l-6.63-52.35c-1.55-12.25,6.3-23.67,17.44-25.38h0c11.15-1.71,21.54,6.92,23.09,19.17l6.63,52.35C161.4,1864.78,153.55,1876.2,142.41,1877.91Z"/><rect class="cls-4" x="118.99" y="1846.54" width="40.92" height="94.44" rx="4.24" ry="4.24" transform="translate(119.32 -5.02) rotate(3.6)"/><path class="cls-5" d="M105.69,1944.93c0-17.75,11.34-32.14,25.34-32.14s25.34,14.39,25.34,32.14"/><path class="cls-6" d="M140,1925.95l3.71,2.76a4.48,4.48,0,0,0,6.65-1.57l12.2-21.11a5.93,5.93,0,0,0-1.38-7.55l-3.71-2.76a4.48,4.48,0,0,0-6.65,1.57l-12.2,21.11A5.93,5.93,0,0,0,140,1925.95Z"/><path class="cls-6" d="M153.58,1926.13l2.59-4.09a6,6,0,0,0-1.1-7.61L137,1899.71a4.46,4.46,0,0,0-6.7,1.25l-2.59,4.09a6,6,0,0,0,1.1,7.61l18.07,14.72A4.46,4.46,0,0,0,153.58,1926.13Z"/><path class="cls-7" d="M121.34,1943.26a33.57,33.57,0,0,1,67.15,0"/><rect class="cls-6" x="104.38" y="1937.79" width="85.66" height="10.66" rx="1.11" ry="1.11"/><rect class="cls-4" x="111.09" y="1749.2" width="110.76" height="67.36" rx="4.92" ry="4.92"/><path class="cls-3" d="M220.16,1761.6V1614.48c0-14.32-6.66-26-14.81-26H127.59c-8.15,0-14.81,11.72-14.81,26V1761.6Z"/><circle class="cls-8" cx="167.86" cy="1593.07" r="42.74"/><path class="cls-1" d="M279.55,1421.74l17,105.68A16.51,16.51,0,0,1,283,1546.3a16.29,16.29,0,0,1-4.53.08l2.6,16.14a16.51,16.51,0,0,1-13.63,18.88,16.33,16.33,0,0,1-3,.19l2.9,18a16.46,16.46,0,1,1-32.5,5.24l-27.63-171.43Z"/><ellipse class="cls-9" cx="172.74" cy="1463.99" rx="107.18" ry="134.7"/><path class="cls-10" d="M170.62,1484"/><path class="cls-10" d="M137.74,1476.39"/><path class="cls-10" d="M163.16,1486.94"/><circle cx="163.93" cy="1488.25" r="19.74"/><circle class="cls-11" cx="174" cy="1485" r="5.79"/><circle class="cls-11" cx="167.24" cy="1476.2" r="3.08"/><path class="cls-10" d="M236.8,1478.31"/><path class="cls-12" d="M174.22,1547.4c7.34,8.44,17.26,7.22,29.61,6.62"/><circle cx="238.74" cy="1488.58" r="18.31"/><circle class="cls-11" cx="248.43" cy="1486.83" r="5.36"/><circle class="cls-11" cx="244.41" cy="1477.11" r="2.86"/><path class="cls-1" d="M39.06,1443.06c0-62.83,54.33-113.77,121.35-113.77s121.35,50.94,121.35,113.77"/><circle class="cls-12" cx="200.02" cy="1521.07" r="3.49"/><circle class="cls-12" cx="214.72" cy="1521.07" r="3.49" transform="translate(-1012.67 597.34) rotate(-45)"/><path class="cls-1" d="M60.72,1464.91,117,1479.12c4.77,1.2,10.48-5,12.69-13.77a29.28,29.28,0,0,0,.76-4.44l8.6,2.17c4.77,1.2,10.48-5,12.69-13.77a29.76,29.76,0,0,0,.58-2.94l9.6,2.42c4.77,1.2,10.48-5,12.69-13.77s.13-16.94-4.64-18.14l-91.37-23.06Z"/><circle class="cls-2" cx="108.88" cy="1546.18" r="18.63" transform="translate(-1441.09 1557.65) rotate(-86.4)"/><circle class="cls-2" cx="114.46" cy="1560.86" r="13.08" transform="translate(-1450.51 1576.97) rotate(-86.4)"/><circle class="cls-2" cx="127.97" cy="1554.45" r="8.25" transform="translate(-1431.45 1584.45) rotate(-86.4)"/><ellipse class="cls-2" cx="250.2" cy="1537.03" rx="7.96" ry="9.47" transform="translate(-1299.52 1690.11) rotate(-86.4)"/><circle class="cls-2" cx="241.97" cy="1544.6" r="7.55" transform="translate(-1314.79 1688.99) rotate(-86.4)"/><circle class="cls-2" cx="269.51" cy="1455.24" r="10.97" transform="translate(-1199.8 1632.74) rotate(-86.4)"/><circle class="cls-2" cx="273.17" cy="1463.94" r="8.25" transform="translate(-1205.05 1644.55) rotate(-86.4)"/><ellipse class="cls-2" cx="206.9" cy="1446.97" rx="8.17" ry="24.84" transform="translate(-1250.21 1562.5) rotate(-86.4)"/><path class="cls-1" d="M280.2,1443.06c0-62.83-47.71-113.77-106.57-113.77v113.77Z"/><ellipse class="cls-2" cx="216.7" cy="1451.58" rx="10.12" ry="14.02" transform="translate(-1245.63 1576.61) rotate(-86.4)"/><path class="cls-1" d="M175.29,1400.66l20.3,44.32c1.72,3.75,10.67,3.36,19.9-.87a43.67,43.67,0,0,0,4.45-2.36l3.1,6.77c1.72,3.75,10.67,3.36,19.9-.87,1-.48,2-1,3-1.52l3.46,7.56c1.72,3.75,10.67,3.36,19.9-.87s15.37-10.75,13.66-14.5L250,1366.43Z"/><ellipse class="cls-2" cx="143.75" cy="1615.93" rx="8.56" ry="10.18" transform="translate(-637.01 193.85) rotate(-23.68)"/><circle class="cls-2" cx="150.05" cy="1621.98" r="4.65" transform="translate(-638.91 196.89) rotate(-23.68)"/><path class="cls-13" d="M43.68,1529.78c3,6.83,10.38,9.62,16.39,6.2l3.55-2c6-3.42,8.46-11.8,5.45-18.63l-27.4-62.21a13.9,13.9,0,0,0-2.13-3.42,27.9,27.9,0,0,0-4.74-21c-7.37-10.42-19.86-12.9-27.9-5.55s-8.58,21.75-1.22,32.17a23.87,23.87,0,0,0,9.44,8,15.14,15.14,0,0,0,1.15,4.19Z"/><path class="cls-2" d="M43.07,1498.82c5.87-2.59,12.47.71,14.75,7.38s-.62,14.18-6.49,16.77-12.47-.71-14.75-7.38S37.2,1501.42,43.07,1498.82Z"/><path class="cls-2" d="M51,1494.61c4.12-1.82,8.76.5,10.36,5.18s-.44,10-4.56,11.78-8.76-.5-10.36-5.18S46.89,1496.43,51,1494.61Z"/><path class="cls-2" d="M45,1491.08c2.6-1.15,5.53.31,6.54,3.27a6,6,0,0,1-2.88,7.43c-2.6,1.15-5.53-.31-6.54-3.27A6,6,0,0,1,45,1491.08Z"/><path class="cls-2" d="M27.93,1453.1c-2-4.17-.61-9.37,3.06-11.62s8.25-.69,10.22,3.48.61,9.37-3.06,11.62S29.91,1457.27,27.93,1453.1Z"/><path class="cls-2" d="M30.83,1444.79a5.75,5.75,0,0,1,1.91-7.27,4.44,4.44,0,0,1,6.39,2.17,5.75,5.75,0,0,1-1.91,7.27A4.44,4.44,0,0,1,30.83,1444.79Z"/><rect class="cls-3" x="60.96" y="1520.23" width="44.9" height="103.4" rx="4.66" ry="4.66" transform="translate(791.24 2977.96) rotate(156.32)"/><path class="cls-13" d="M298,1437.4a29.63,29.63,0,0,0-.29,19.07,14.53,14.53,0,0,0-1.8,3.91l-19,65.47c-2.09,7.19,1.23,15.07,7.37,17.51l3.63,1.45c6.14,2.44,12.88-1.43,15-8.62l19-65.47a15.8,15.8,0,0,0,.61-4.89,25.42,25.42,0,0,0,8.91-12.41c4.31-12.29.33-25.85-8.89-30.27S302.34,1425.1,298,1437.4Z"/><path class="cls-2" d="M306.77,1477.67c-4.52,2.28-9.76-.16-11.71-5.44s.13-11.42,4.65-13.7,9.76.16,11.71,5.44S311.28,1475.39,306.77,1477.67Z"/><path class="cls-2" d="M298.47,1472.8c-2.82,1.43-6.1-.1-7.32-3.4s.08-7.14,2.91-8.56,6.1.1,7.32,3.4S301.29,1471.37,298.47,1472.8Z"/><path class="cls-2" d="M301.44,1476.31c-1.3,2.76-4.26,3.77-6.62,2.26a6.24,6.24,0,0,1-1.93-7.75"/><path class="cls-2" d="M297.53,1462.1c-.86-3,.51-6.22,3.06-7.23s5.32.6,6.18,3.58"/><path class="cls-2" d="M302.81,1455.32c2.42-3.15,6-4,8-1.88s1.66,6.37-.75,9.51"/><path class="cls-2" d="M285.56,1517.4c4.23-.49,8.05,3.89,8.55,9.77s-2.53,11-6.75,11.54-8.05-3.89-8.55-9.77S281.34,1517.89,285.56,1517.4Z"/><path class="cls-2" d="M289.75,1531.3c2.3-.26,4.34,1.7,4.57,4.39s-1.45,5.08-3.75,5.35-4.34-1.7-4.57-4.39S287.45,1531.56,289.75,1531.3Z"/><rect class="cls-3" x="242.37" y="1527.42" width="44.9" height="104.08" rx="4.66" ry="4.66" transform="translate(825.21 79.2) rotate(30)"/><rect class="cls-3" x="210.42" y="1587.39" width="46.36" height="48.02" rx="3.94" ry="3.94"/><circle class="cls-14" cx="535.91" cy="23.68" r="22.58"/><circle class="cls-14" cx="338.59" cy="22.58" r="22.58"/><path class="cls-1" d="M39.06,1430.06v101.88c0,8.62,7.41,15.67,16.46,15.67A17.06,17.06,0,0,0,60,1547v15.56c0,8.62,7.41,15.67,16.46,15.67a17.14,17.14,0,0,0,3-.27v17.37c0,8.62,7.41,15.67,16.46,15.67s16.46-7.05,16.46-15.67V1430.06Z"/><rect class="cls-15" x="28.26" y="1223.58" width="285.16" height="211.45"/></g></g></svg>