<svg xmlns="http://www.w3.org/2000/svg" viewBox="0 0 361.79 555.14"><defs><style>.cls-1,.cls-7{fill:#d1ba99;}.cls-17,.cls-2{fill:#bababa;}.cls-3{fill:#b2c8ce;}.cls-4{fill:#4d8b8e;}.cls-5{fill:#cad5d8;}.cls-6{fill:#2e302d;}.cls-7{stroke:#c1a985;}.cls-17,.cls-18,.cls-7,.cls-9{stroke-miterlimit:10;}.cls-8{fill:#ddcaab;}.cls-9{fill:none;stroke-linecap:round;stroke-width:4px;}.cls-18,.cls-9{stroke:#000;}.cls-10{fill:#fff;}.cls-11{fill:#c9b181;}.cls-12{fill:#bfa380;}.cls-13{fill:#a37654;}.cls-14{fill:#5a706d;}.cls-15{fill:#ddd;}.cls-16{fill:#406362;}.cls-17{stroke:#989999;stroke-width:0.75px;}.cls-18{fill:#fffef8;stroke-width:0.5px;}</style></defs><title>Jules with sign 1</title><g id="Lag_2" data-name="Lag 2"><g id="Lag_1-2" data-name="Lag 1"><rect class="cls-1" x="213.21" y="462.68" width="37.13" height="85.68" rx="4.06" ry="4.06" transform="translate(32.24 -13.57) rotate(3.6)"/><rect class="cls-2" x="287.68" y="463.19" width="20.95" height="85.68" rx="2.29" ry="2.29" transform="translate(32.4 -17.74) rotate(3.6)"/><path class="cls-1" d="M235.77,491.14h0c-10.11,1.55-19.54-6.28-20.95-17.4l-6-47.5c-1.41-11.12,5.71-21.48,15.83-23h0c10.11-1.55,19.54,6.28,20.95,17.4l6,47.5C253,479.23,245.88,489.59,235.77,491.14Z"/><path class="cls-2" d="M302,490h0c-5.94,1-12-7.33-13.46-18.44l-6.26-47.47c-1.46-11.11,2.2-21,8.13-22h0c5.94-1,12,7.33,13.46,18.44l6.26,47.47C311.61,479.19,308,489.07,302,490Z"/><path class="cls-3" d="M295,460.76l-6.31,1.41C282.3,463.6,276,459,274.72,452l-13.09-70.5c-1.3-7,2.85-13.9,9.22-15.33l6.31-1.41c6.37-1.43,12.65,3.13,13.95,10.14l13.09,70.5C305.5,452.43,301.35,459.33,295,460.76Z"/><path class="cls-4" d="M236.27,466l-6.29-1.5c-6.36-1.51-10.43-8.47-9.06-15.45l13.85-70.33c1.38-7,7.7-11.47,14.06-10l6.29,1.5c6.36,1.51,10.43,8.47,9.06,15.45l-13.85,70.33C249,463.06,242.63,467.53,236.27,466Z"/><path class="cls-4" d="M323.85,455.55l-5.78,3.11c-5.84,3.15-13,.47-15.82-6l-28.8-64.62c-2.86-6.42-.42-14.25,5.42-17.39l5.78-3.11c5.84-3.15,13-.47,15.82,6l28.8,64.62C332.12,444.58,329.69,452.4,323.85,455.55Z"/><path class="cls-4" d="M207.2,460.74l-6.15-2.08c-6.22-2.1-9.74-9.41-7.82-16.25l19.25-68.77c1.91-6.83,8.56-10.7,14.78-8.6l6.15,2.08c6.22,2.1,9.74,9.41,7.82,16.25L222,452.14C220.07,459,213.42,462.84,207.2,460.74Z"/><rect class="cls-4" x="246.4" y="365.28" width="30.09" height="97.95" rx="3.29" ry="3.29"/><path class="cls-4" d="M303.68,381.87V255.31c0-12.32-5.72-22.4-12.71-22.4H224.25c-7,0-12.71,10.08-12.71,22.4V381.87Z"/><rect class="cls-5" x="183.71" y="190.51" width="71.92" height="71.92" rx="7.87" ry="7.87"/><rect class="cls-6" x="297.34" y="238.87" width="34.79" height="34.79" rx="3.81" ry="3.81"/><circle class="cls-7" cx="255.12" cy="241.54" r="38.78"/><path class="cls-5" d="M361.24,88.47V251.56c0,13.8-6.72,25.09-14.93,25.09a9.36,9.36,0,0,1-4.07-1v24.91c0,13.8-6.72,25.09-14.93,25.09a9.08,9.08,0,0,1-2.71-.44V353c0,13.8-6.72,25.09-14.93,25.09S294.73,366.84,294.73,353V88.47Z"/><ellipse class="cls-8" cx="262.88" cy="125.53" rx="97.24" ry="122.21"/><path class="cls-9" d="M255.09,141.59A19.55,19.55,0,0,1,229.55,131"/><circle cx="253.57" cy="140.6" r="19.84"/><circle class="cls-10" cx="263.68" cy="137.34" r="5.81"/><circle class="cls-10" cx="256.89" cy="128.5" r="3.1"/><path class="cls-9" d="M326.19,140.48a19.55,19.55,0,0,0,25.54-10.6"/><circle cx="328.73" cy="140.94" r="18.39"/><circle class="cls-10" cx="338.46" cy="139.18" r="5.39"/><circle class="cls-10" cx="334.42" cy="129.41" r="2.87"/><path class="cls-5" d="M141.6,103.22C141.6,46.21,190.89,0,251.69,0S361.79,46.21,361.79,103.22"/><circle class="cls-11" cx="285.41" cy="170.67" r="3.17"/><circle class="cls-11" cx="298.75" cy="170.67" r="3.17" transform="translate(-33.18 261.24) rotate(-45)"/><path class="cls-12" d="M305.83,205.55a.19.19,0,0,0,0,0h0c-.26-.65-4-1.16-8.52-1.16-1.48,0-2.88.05-4.09.15-1.21-.09-2.59-.15-4.05-.15-4.54,0-8.24.51-8.52,1.16h0a.19.19,0,0,0,0,0,.19.19,0,0,0,0,0h0c.34.79,5.84,1.42,12.59,1.42s12.27-.63,12.59-1.42h0A.19.19,0,0,0,305.83,205.55Z"/><ellipse class="cls-13" cx="292.85" cy="205.95" rx="5.16" ry="0.06"/><path class="cls-5" d="M141.6,92.21V255.3c0,13.8,6.72,25.09,14.93,25.09a9.36,9.36,0,0,0,4.07-1v24.91c0,13.8,6.72,25.09,14.93,25.09a9.08,9.08,0,0,0,2.71-.44v27.81c0,13.8,6.72,25.09,14.93,25.09s14.93-11.29,14.93-25.09V92.21Z"/><path class="cls-5" d="M360.37,103.22C360.37,46.21,317.08,0,263.68,0V103.22Z"/><path class="cls-7" d="M178.24,349.15A11.11,11.11,0,0,0,193.87,348l2.36-2.72a11.11,11.11,0,0,0-1.11-15.63l-42-36.37a11,11,0,0,0-2.83-1.78A20.19,20.19,0,0,0,140,277.72c-9.36-5.12-20.59-2.62-25.08,5.58s-.56,19,8.8,24.14A21.2,21.2,0,0,0,134,310.09a11,11,0,0,0,2.24,2.69Z"/><rect class="cls-4" x="172.66" y="256.03" width="40.74" height="81.98" rx="4.46" ry="4.46" transform="translate(100.12 -44.81) rotate(17.81)"/><rect class="cls-4" x="182.16" y="234.93" width="38.22" height="38.22" rx="4.18" ry="4.18" transform="translate(-18.86 16.15) rotate(-4.39)"/><path class="cls-14" d="M263.4,551.94c0-16.11,10.29-29.16,23-29.16s23,13.06,23,29.16"/><path class="cls-15" d="M294.55,534.72l3.37,2.51a4.06,4.06,0,0,0,6-1.42L315,516.65a5.38,5.38,0,0,0-1.25-6.85l-3.37-2.51a4.06,4.06,0,0,0-6,1.42L293.3,527.87A5.38,5.38,0,0,0,294.55,534.72Z"/><path class="cls-15" d="M306.84,534.89l2.35-3.71a5.41,5.41,0,0,0-1-6.9L291.8,510.92a4,4,0,0,0-6.08,1.13l-2.35,3.71a5.41,5.41,0,0,0,1,6.9L300.76,536A4,4,0,0,0,306.84,534.89Z"/><path class="cls-16" d="M277.59,550.42a30.46,30.46,0,0,1,60.92,0"/><rect class="cls-15" x="262.21" y="545.47" width="77.72" height="9.67" rx="1.06" ry="1.06"/><path class="cls-14" d="M202.46,551.94c0-16.11,10.29-29.16,23-29.16s23,13.06,23,29.16"/><path class="cls-15" d="M233.61,534.72l3.37,2.51a4.06,4.06,0,0,0,6-1.42l11.07-19.15a5.38,5.38,0,0,0-1.25-6.85l-3.37-2.51a4.06,4.06,0,0,0-6,1.42l-11.07,19.15A5.38,5.38,0,0,0,233.61,534.72Z"/><path class="cls-15" d="M245.91,534.89l2.35-3.71a5.41,5.41,0,0,0-1-6.9l-16.39-13.36a4,4,0,0,0-6.08,1.13l-2.35,3.71a5.41,5.41,0,0,0,1,6.9L239.83,536A4,4,0,0,0,245.91,534.89Z"/><path class="cls-16" d="M216.66,550.42a30.46,30.46,0,0,1,60.92,0"/><rect class="cls-15" x="201.27" y="545.47" width="77.72" height="9.67" rx="1.06" ry="1.06"/><circle class="cls-17" cx="302.76" cy="476.24" r="9.64"/><rect class="cls-4" x="261.55" y="251.11" width="40.74" height="85.73" rx="4.46" ry="4.46" transform="translate(168.29 685.12) rotate(-120)"/><path class="cls-7" d="M175.35,297.28a20.53,20.53,0,0,0,14.83,3.83,11,11,0,0,0,2.66,2.37l47,29.64a11.11,11.11,0,0,0,15.28-3.45l1.92-3a11.11,11.11,0,0,0-3.45-15.28l-47-29.64a11,11,0,0,0-3.68-1.47,20.9,20.9,0,0,0-7.74-10.46c-8.66-6.24-20.11-5.13-25.58,2.46S166.69,291,175.35,297.28Z"/><rect class="cls-18" x="0.25" y="119.02" width="201.02" height="161.95"/><path class="cls-7" d="M175.35,297.28a20.53,20.53,0,0,0,14.83,3.83,11,11,0,0,0,2.66,2.37l47,29.64a11.11,11.11,0,0,0,15.28-3.45l1.92-3a11.11,11.11,0,0,0-3.45-15.28l-47-29.64a11,11,0,0,0-3.68-1.47,20.9,20.9,0,0,0-7.74-10.46c-8.66-6.24-20.11-5.13-25.58,2.46S166.69,291,175.35,297.28Z"/><rect class="cls-4" x="261.87" y="251.66" width="40.74" height="85.73" rx="4.46" ry="4.46" transform="translate(168.29 686.21) rotate(-120)"/><path class="cls-5" d="M361.24,242.64V318.7c0,6.44-6.72,11.7-14.93,11.7a18.61,18.61,0,0,1-4.07-.46v11.62c0,6.44-6.72,11.7-14.93,11.7a18.8,18.8,0,0,1-2.71-.2v13c0,6.44-6.72,11.7-14.93,11.7s-14.93-5.27-14.93-11.7V242.64Z"/></g></g></svg>