<svg xmlns="http://www.w3.org/2000/svg" viewBox="0 0 249.81 602.09"><defs><style>.cls-1{fill:#14100f;}.cls-2{fill:#e1e2e0;}.cls-3{fill:#2e302d;}.cls-4{fill:#ad733e;}.cls-5{fill:#ddbea8;}.cls-6{fill:#eacfbb;}.cls-7{fill:none;stroke-linecap:round;stroke-width:4px;}.cls-15,.cls-7{stroke:#000;}.cls-10,.cls-15,.cls-7{stroke-miterlimit:10;}.cls-8{fill:#fff;}.cls-9{fill:#d3ab8d;}.cls-10{fill:#ad4728;stroke:#ba8778;}.cls-11{fill:#8e3725;}.cls-12{fill:#44443b;}.cls-13{fill:#ddd;}.cls-14{fill:#777c74;}.cls-15{fill:#fffef8;stroke-width:0.5px;}</style></defs><title>Person with sign 1</title><g id="Lag_2" data-name="Lag 2"><g id="Lag_1-2" data-name="Lag 1"><rect class="cls-1" x="72.99" y="406.03" width="105.14" height="66.28" rx="8.48" ry="8.48"/><path class="cls-2" d="M175.79,414.16V276.9c0-13.36-6.2-24.29-13.78-24.29H89.64c-7.58,0-13.78,10.93-13.78,24.29V414.16Z"/><rect class="cls-3" x="168.92" y="259.08" width="37.73" height="37.73" rx="4.83" ry="4.83"/><rect class="cls-4" x="45.67" y="206.62" width="78" height="78" rx="9.98" ry="9.98"/><circle class="cls-5" cx="123.13" cy="261.96" r="42.06"/><path class="cls-4" d="M238.22,96v139.7c0,11.82-7.29,21.49-16.19,21.49a12.41,12.41,0,0,1-4.42-.84v21.34c0,11.82-7.29,21.49-16.19,21.49a12.26,12.26,0,0,1-2.94-.38v23.82c0,11.82-7.29,21.49-16.19,21.49s-16.19-9.67-16.19-21.49V96Z"/><ellipse class="cls-6" cx="131.54" cy="136.15" rx="105.46" ry="132.54"/><path class="cls-7" d="M128.73,147.84a21.2,21.2,0,0,1-26.66-13.73"/><path class="cls-7" d="M120.6,151.07a21.2,21.2,0,0,1-27.7-11.49"/><circle cx="121.44" cy="152.5" r="21.51"/><circle class="cls-8" cx="132.41" cy="148.96" r="6.3"/><circle class="cls-8" cx="125.04" cy="139.37" r="3.36"/><path class="cls-7" d="M194.58,146.64a21.2,21.2,0,0,0,26.66-13.73"/><path class="cls-7" d="M202.7,149.87a21.2,21.2,0,0,0,27.7-11.49"/><circle cx="202.96" cy="152.86" r="19.95"/><circle class="cls-8" cx="213.51" cy="150.95" r="5.85"/><circle class="cls-8" cx="209.13" cy="140.36" r="3.12"/><path class="cls-4" d="M0,111.95C0,50.12,53.46,0,119.41,0S238.81,50.12,238.81,111.95"/><circle class="cls-9" cx="155.97" cy="185.11" r="3.44"/><circle class="cls-9" cx="170.44" cy="185.11" r="3.44" transform="translate(-80.97 174.74) rotate(-45)"/><path class="cls-10" d="M180.23,221.17c0-.1,0-.2,0-.3h0c-.38-5.9-5.77-10.58-12.37-10.58a13.34,13.34,0,0,0-5.94,1.38,13.34,13.34,0,0,0-5.88-1.35c-6.59,0-12,4.66-12.37,10.55h0c0,.11,0,.21,0,.31s0,.25,0,.38h0c.49,7.21,8.49,13,18.28,13s17.81-5.75,18.28-13h0C180.24,221.42,180.23,221.29,180.23,221.17Z"/><ellipse class="cls-11" cx="161.46" cy="222.26" rx="6.5" ry="0.36"/><path class="cls-4" d="M237.27,111.95C237.27,50.12,190.33,0,132.41,0V111.95Z"/><rect class="cls-2" x="41.32" y="258.71" width="41.45" height="41.45" rx="5.3" ry="5.3" transform="translate(-21.21 5.57) rotate(-4.39)"/><path class="cls-1" d="M168.23,532.68h0c-11,1.68-21.19-6.81-22.72-18.87L139,462.29c-1.53-12.06,6.2-23.29,17.16-25h0c11-1.68,21.19,6.81,22.72,18.87l6.53,51.52C186.92,519.76,179.2,531,168.23,532.68Z"/><rect class="cls-1" x="145.19" y="501.81" width="40.27" height="92.93" rx="5.15" ry="5.15" transform="translate(34.79 -9.31) rotate(3.6)"/><path class="cls-12" d="M132.1,598.62C132.1,581.16,143.26,567,157,567S182,581.16,182,598.62"/><path class="cls-13" d="M165.89,579.94l3.65,2.72a4.41,4.41,0,0,0,6.54-1.54l12-20.77a5.84,5.84,0,0,0-1.36-7.43l-3.65-2.72a4.41,4.41,0,0,0-6.54,1.54l-12,20.77A5.84,5.84,0,0,0,165.89,579.94Z"/><path class="cls-13" d="M179.22,580.13l2.55-4a5.86,5.86,0,0,0-1.08-7.49l-17.78-14.49a4.39,4.39,0,0,0-6.59,1.23l-2.55,4a5.86,5.86,0,0,0,1.08,7.49l17.78,14.49A4.39,4.39,0,0,0,179.22,580.13Z"/><path class="cls-14" d="M147.5,597a33,33,0,0,1,66.07,0"/><rect class="cls-13" x="130.81" y="591.6" width="84.29" height="10.49" rx="1.34" ry="1.34"/><path class="cls-1" d="M102.14,532.68h0c-11,1.68-21.19-6.81-22.72-18.87l-6.53-51.52c-1.53-12.06,6.2-23.29,17.16-25h0c11-1.68,21.19,6.81,22.72,18.87l6.53,51.52C120.83,519.76,113.11,531,102.14,532.68Z"/><rect class="cls-1" x="79.1" y="501.81" width="40.27" height="92.93" rx="5.15" ry="5.15" transform="translate(34.66 -5.15) rotate(3.6)"/><path class="cls-12" d="M66,598.62C66,581.16,77.17,567,90.94,567s24.93,14.16,24.93,31.63"/><path class="cls-13" d="M99.8,579.94l3.65,2.72a4.41,4.41,0,0,0,6.54-1.54l12-20.77a5.84,5.84,0,0,0-1.36-7.43L117,550.2a4.41,4.41,0,0,0-6.54,1.54l-12,20.77A5.84,5.84,0,0,0,99.8,579.94Z"/><path class="cls-13" d="M113.13,580.13l2.55-4a5.86,5.86,0,0,0-1.08-7.49L96.82,554.13a4.39,4.39,0,0,0-6.59,1.23l-2.55,4a5.86,5.86,0,0,0,1.08,7.49l17.78,14.49A4.39,4.39,0,0,0,113.13,580.13Z"/><path class="cls-14" d="M81.41,597a33,33,0,0,1,66.07,0"/><rect class="cls-13" x="64.72" y="591.6" width="84.29" height="10.49" rx="1.34" ry="1.34"/><rect class="cls-2" x="35.66" y="254.94" width="52.58" height="57.07" rx="4.33" ry="4.33"/><path class="cls-4" d="M0,99.16v139.7c0,11.82,7.29,21.49,16.19,21.49a12.41,12.41,0,0,0,4.42-.84v21.34c0,11.82,7.29,21.49,16.19,21.49a12.26,12.26,0,0,0,2.94-.38v23.82c0,11.82,7.29,21.49,16.19,21.49s16.19-9.67,16.19-21.49V99.16Z"/><rect class="cls-15" x="28.22" y="278.59" width="201.02" height="161.95"/><circle class="cls-5" cx="227.23" cy="336.83" r="22.58"/><circle class="cls-5" cx="29.91" cy="335.74" r="22.58"/></g></g></svg>